<svg xmlns="http://www.w3.org/2000/svg" width="1200" height="630" viewBox="0 0 1200 630" role="img" aria-label="KaikouSpeak open graph image">
  <defs>
    <linearGradient id="bg" x1="0" y1="0" x2="1" y2="1">
      <stop stop-color="#eef6ff" />
      <stop offset="0.55" stop-color="#f8fbff" />
      <stop offset="1" stop-color="#e9fbf7" />
    </linearGradient>
    <linearGradient id="brand" x1="0" y1="0" x2="1" y2="1">
      <stop stop-color="#123c8c" />
      <stop offset="1" stop-color="#10a7c8" />
    </linearGradient>
  </defs>
  <rect width="1200" height="630" fill="url(#bg)" />
  <path d="M0 0h1200v630H0z" fill="none" stroke="#dbe6f3" stroke-width="2" />
  <g transform="translate(78 78)">
    <rect width="72" height="72" rx="16" fill="url(#brand)" />
    <path d="M22 50V22h9v11l12-11h11L41 35l14 15H43L31 37v13h-9Z" fill="#fff" />
    <text x="92" y="34" fill="#10213f" font-family="Inter, Arial, sans-serif" font-size="30" font-weight="800">开口说英语</text>
    <text x="92" y="64" fill="#5d6a83" font-family="Inter, Arial, sans-serif" font-size="22" font-weight="700">KaikouSpeak</text>
  </g>
  <g transform="translate(86 220)">
    <text fill="#10213f" font-family="Inter, Arial, sans-serif" font-size="66" font-weight="900">开口说英语，不只是背单词</text>
    <text y="86" fill="#40506e" font-family="Inter, Arial, sans-serif" font-size="30" font-weight="600">场景 Mission：单词 → 句子 → 对话 → 开口任务</text>
    <rect y="134" width="236" height="58" rx="8" fill="url(#brand)" />
    <text x="36" y="172" fill="#fff" font-family="Inter, Arial, sans-serif" font-size="24" font-weight="900">下载 Android APK</text>
  </g>
  <g transform="translate(820 92)">
    <rect width="260" height="456" rx="36" fill="#10213f" />
    <rect x="18" y="42" width="224" height="390" rx="22" fill="#f8fbff" />
    <rect x="38" y="70" width="184" height="86" rx="8" fill="#e9f8fb" stroke="#c7ebf3" />
    <text x="56" y="104" fill="#10a7c8" font-family="Inter, Arial, sans-serif" font-size="18" font-weight="900">今日 Mission</text>
    <text x="56" y="132" fill="#10213f" font-family="Inter, Arial, sans-serif" font-size="18" font-weight="800">Japanese Restaurant</text>
    <rect x="38" y="178" width="70" height="36" rx="18" fill="#e9f8fb" />
    <text x="52" y="202" fill="#10305d" font-family="Inter, Arial, sans-serif" font-size="16" font-weight="900">sushi</text>
    <rect x="118" y="178" width="74" height="36" rx="18" fill="#e9f8fb" />
    <text x="132" y="202" fill="#10305d" font-family="Inter, Arial, sans-serif" font-size="16" font-weight="900">ramen</text>
    <rect x="38" y="238" width="184" height="78" rx="8" fill="#fff" stroke="#dbe6f3" />
    <text x="56" y="270" fill="#5d6a83" font-family="Inter, Arial, sans-serif" font-size="15" font-weight="700">实用句子</text>
    <text x="56" y="296" fill="#10213f" font-family="Inter, Arial, sans-serif" font-size="17" font-weight="900">What do you recommend?</text>
    <rect x="38" y="344" width="184" height="46" rx="8" fill="url(#brand)" />
    <text x="74" y="374" fill="#fff" font-family="Inter, Arial, sans-serif" font-size="17" font-weight="900">开始对话练习</text>
  </g>
</svg>
